<mxfile host="app.diagrams.net" modified="2023-01-27T12:04:26.244Z" agent="5.0 (Windows)" etag="mw-GnS1uM1UUitaYpqoH" version="20.8.13" type="github">
  <diagram name="Strona-1" id="ixbrU4PEE-z4TEm-pT52">
    <mxGraphModel dx="791" dy="1133" grid="1" gridSize="10" guides="1" tooltips="1" connect="1" arrows="1" fold="1" page="1" pageScale="1" pageWidth="827" pageHeight="1169" math="0" shadow="0">
      <root>
        <mxCell id="0" />
        <mxCell id="1" parent="0" />
        <mxCell id="nGbhJUHsJuaCeIzr4p0f-4" style="edgeStyle=orthogonalEdgeStyle;rounded=0;orthogonalLoop=1;jettySize=auto;html=1;exitX=0.5;exitY=1;exitDx=0;exitDy=0;" edge="1" parent="1" source="nGbhJUHsJuaCeIzr4p0f-1" target="nGbhJUHsJuaCeIzr4p0f-3">
          <mxGeometry relative="1" as="geometry" />
        </mxCell>
        <mxCell id="nGbhJUHsJuaCeIzr4p0f-1" value="START" style="ellipse;whiteSpace=wrap;html=1;" vertex="1" parent="1">
          <mxGeometry x="340" y="250" width="120" height="80" as="geometry" />
        </mxCell>
        <mxCell id="nGbhJUHsJuaCeIzr4p0f-23" style="edgeStyle=orthogonalEdgeStyle;rounded=0;orthogonalLoop=1;jettySize=auto;html=1;entryX=0.5;entryY=0;entryDx=0;entryDy=0;" edge="1" parent="1" source="nGbhJUHsJuaCeIzr4p0f-2" target="nGbhJUHsJuaCeIzr4p0f-6">
          <mxGeometry relative="1" as="geometry" />
        </mxCell>
        <mxCell id="nGbhJUHsJuaCeIzr4p0f-2" value="i = 1&lt;br&gt;ilosc = 0" style="rounded=0;whiteSpace=wrap;html=1;" vertex="1" parent="1">
          <mxGeometry x="340" y="430" width="120" height="60" as="geometry" />
        </mxCell>
        <mxCell id="nGbhJUHsJuaCeIzr4p0f-5" style="edgeStyle=orthogonalEdgeStyle;rounded=0;orthogonalLoop=1;jettySize=auto;html=1;exitX=0.5;exitY=1;exitDx=0;exitDy=0;entryX=0.5;entryY=0;entryDx=0;entryDy=0;" edge="1" parent="1" source="nGbhJUHsJuaCeIzr4p0f-3" target="nGbhJUHsJuaCeIzr4p0f-2">
          <mxGeometry relative="1" as="geometry" />
        </mxCell>
        <mxCell id="nGbhJUHsJuaCeIzr4p0f-3" value="Podaj n" style="shape=parallelogram;perimeter=parallelogramPerimeter;whiteSpace=wrap;html=1;fixedSize=1;" vertex="1" parent="1">
          <mxGeometry x="340" y="350" width="120" height="60" as="geometry" />
        </mxCell>
        <mxCell id="nGbhJUHsJuaCeIzr4p0f-16" value="Tak" style="edgeStyle=orthogonalEdgeStyle;rounded=0;orthogonalLoop=1;jettySize=auto;html=1;" edge="1" parent="1" source="nGbhJUHsJuaCeIzr4p0f-6" target="nGbhJUHsJuaCeIzr4p0f-8">
          <mxGeometry relative="1" as="geometry" />
        </mxCell>
        <mxCell id="nGbhJUHsJuaCeIzr4p0f-28" value="Nie" style="edgeStyle=orthogonalEdgeStyle;rounded=0;orthogonalLoop=1;jettySize=auto;html=1;exitX=0;exitY=0.5;exitDx=0;exitDy=0;entryX=1;entryY=0.5;entryDx=0;entryDy=0;" edge="1" parent="1" source="nGbhJUHsJuaCeIzr4p0f-6" target="nGbhJUHsJuaCeIzr4p0f-30">
          <mxGeometry relative="1" as="geometry">
            <mxPoint x="280" y="600" as="targetPoint" />
          </mxGeometry>
        </mxCell>
        <mxCell id="nGbhJUHsJuaCeIzr4p0f-6" value="i&amp;lt;=n" style="rhombus;whiteSpace=wrap;html=1;" vertex="1" parent="1">
          <mxGeometry x="360" y="560" width="80" height="80" as="geometry" />
        </mxCell>
        <mxCell id="nGbhJUHsJuaCeIzr4p0f-11" value="&lt;div&gt;Tak&lt;/div&gt;" style="edgeStyle=orthogonalEdgeStyle;rounded=0;orthogonalLoop=1;jettySize=auto;html=1;" edge="1" parent="1" source="nGbhJUHsJuaCeIzr4p0f-8" target="nGbhJUHsJuaCeIzr4p0f-10">
          <mxGeometry relative="1" as="geometry" />
        </mxCell>
        <mxCell id="nGbhJUHsJuaCeIzr4p0f-19" style="edgeStyle=orthogonalEdgeStyle;rounded=0;orthogonalLoop=1;jettySize=auto;html=1;exitX=0.5;exitY=1;exitDx=0;exitDy=0;entryX=1;entryY=0.5;entryDx=0;entryDy=0;" edge="1" parent="1" source="nGbhJUHsJuaCeIzr4p0f-8" target="nGbhJUHsJuaCeIzr4p0f-12">
          <mxGeometry relative="1" as="geometry" />
        </mxCell>
        <mxCell id="nGbhJUHsJuaCeIzr4p0f-21" value="Nie" style="edgeLabel;html=1;align=center;verticalAlign=middle;resizable=0;points=[];" vertex="1" connectable="0" parent="nGbhJUHsJuaCeIzr4p0f-19">
          <mxGeometry x="-0.8158" relative="1" as="geometry">
            <mxPoint x="12" as="offset" />
          </mxGeometry>
        </mxCell>
        <mxCell id="nGbhJUHsJuaCeIzr4p0f-8" value="i%2==0" style="rhombus;whiteSpace=wrap;html=1;" vertex="1" parent="1">
          <mxGeometry x="360" y="670" width="80" height="80" as="geometry" />
        </mxCell>
        <mxCell id="nGbhJUHsJuaCeIzr4p0f-17" style="edgeStyle=orthogonalEdgeStyle;rounded=0;orthogonalLoop=1;jettySize=auto;html=1;entryX=0.5;entryY=1;entryDx=0;entryDy=0;" edge="1" parent="1" source="nGbhJUHsJuaCeIzr4p0f-10" target="nGbhJUHsJuaCeIzr4p0f-12">
          <mxGeometry relative="1" as="geometry" />
        </mxCell>
        <mxCell id="nGbhJUHsJuaCeIzr4p0f-10" value="ilosc++" style="rounded=0;whiteSpace=wrap;html=1;" vertex="1" parent="1">
          <mxGeometry x="505" y="680" width="65" height="60" as="geometry" />
        </mxCell>
        <mxCell id="nGbhJUHsJuaCeIzr4p0f-27" style="edgeStyle=orthogonalEdgeStyle;rounded=0;orthogonalLoop=1;jettySize=auto;html=1;exitX=0.5;exitY=0;exitDx=0;exitDy=0;" edge="1" parent="1" source="nGbhJUHsJuaCeIzr4p0f-12">
          <mxGeometry relative="1" as="geometry">
            <mxPoint x="400" y="520" as="targetPoint" />
            <Array as="points">
              <mxPoint x="538" y="520" />
            </Array>
          </mxGeometry>
        </mxCell>
        <mxCell id="nGbhJUHsJuaCeIzr4p0f-12" value="i++" style="rounded=0;whiteSpace=wrap;html=1;" vertex="1" parent="1">
          <mxGeometry x="502.5" y="560" width="70" height="60" as="geometry" />
        </mxCell>
        <mxCell id="nGbhJUHsJuaCeIzr4p0f-34" style="edgeStyle=orthogonalEdgeStyle;rounded=0;orthogonalLoop=1;jettySize=auto;html=1;exitX=0.5;exitY=1;exitDx=0;exitDy=0;entryX=0.5;entryY=0;entryDx=0;entryDy=0;" edge="1" parent="1" source="nGbhJUHsJuaCeIzr4p0f-30" target="nGbhJUHsJuaCeIzr4p0f-32">
          <mxGeometry relative="1" as="geometry" />
        </mxCell>
        <mxCell id="nGbhJUHsJuaCeIzr4p0f-30" value="Wypisz ilosc" style="shape=parallelogram;perimeter=parallelogramPerimeter;whiteSpace=wrap;html=1;fixedSize=1;" vertex="1" parent="1">
          <mxGeometry x="160" y="570" width="120" height="60" as="geometry" />
        </mxCell>
        <mxCell id="nGbhJUHsJuaCeIzr4p0f-32" value="STOP" style="ellipse;whiteSpace=wrap;html=1;" vertex="1" parent="1">
          <mxGeometry x="160" y="710" width="120" height="80" as="geometry" />
        </mxCell>
      </root>
    </mxGraphModel>
  </diagram>
</mxfile>
